<svg xmlns="http://www.w3.org/2000/svg" xmlns:xlink="http://www.w3.org/1999/xlink" width="1728" zoomAndPan="magnify" viewBox="0 0 1296 1727.999927" height="2304" preserveAspectRatio="xMidYMid meet" version="1.0"><defs><g/><clipPath id="06bdba8719"><path d="M 182.132812 467.363281 L 1097.886719 467.363281 L 1097.886719 1461 L 182.132812 1461 Z M 182.132812 467.363281 " clip-rule="nonzero"/></clipPath><clipPath id="e4b52ebb1c"><path d="M 242.882812 467.363281 L 1037.136719 467.363281 C 1053.25 467.363281 1068.699219 473.765625 1080.09375 485.15625 C 1091.488281 496.550781 1097.886719 512 1097.886719 528.113281 L 1097.886719 1399.964844 C 1097.886719 1433.519531 1070.6875 1460.714844 1037.136719 1460.714844 L 242.882812 1460.714844 C 226.773438 1460.714844 211.320312 1454.316406 199.925781 1442.921875 C 188.535156 1431.53125 182.132812 1416.078125 182.132812 1399.964844 L 182.132812 528.113281 C 182.132812 494.5625 209.332031 467.363281 242.882812 467.363281 Z M 242.882812 467.363281 " clip-rule="nonzero"/></clipPath><clipPath id="66fea98b52"><path d="M 0.132812 0.363281 L 915.886719 0.363281 L 915.886719 993.878906 L 0.132812 993.878906 Z M 0.132812 0.363281 " clip-rule="nonzero"/></clipPath><clipPath id="85728420cf"><path d="M 60.882812 0.363281 L 855.136719 0.363281 C 871.25 0.363281 886.699219 6.765625 898.09375 18.15625 C 909.488281 29.550781 915.886719 45 915.886719 61.113281 L 915.886719 932.964844 C 915.886719 966.519531 888.6875 993.714844 855.136719 993.714844 L 60.882812 993.714844 C 44.773438 993.714844 29.320312 987.316406 17.925781 975.921875 C 6.535156 964.53125 0.132812 949.078125 0.132812 932.964844 L 0.132812 61.113281 C 0.132812 27.5625 27.332031 0.363281 60.882812 0.363281 Z M 60.882812 0.363281 " clip-rule="nonzero"/></clipPath><clipPath id="726d8807ab"><rect x="0" width="916" y="0" height="994"/></clipPath><clipPath id="5321f7e5c6"><path d="M 182.132812 467.363281 L 1097.882812 467.363281 L 1097.882812 1460.363281 L 182.132812 1460.363281 Z M 182.132812 467.363281 " clip-rule="nonzero"/></clipPath><clipPath id="de12f2c111"><path d="M 242.882812 467.363281 L 1037.132812 467.363281 C 1053.246094 467.363281 1068.699219 473.765625 1080.089844 485.15625 C 1091.484375 496.550781 1097.882812 512.003906 1097.882812 528.113281 L 1097.882812 1399.964844 C 1097.882812 1433.515625 1070.6875 1460.714844 1037.132812 1460.714844 L 242.882812 1460.714844 C 226.773438 1460.714844 211.320312 1454.3125 199.925781 1442.921875 C 188.535156 1431.527344 182.132812 1416.078125 182.132812 1399.964844 L 182.132812 528.113281 C 182.132812 494.5625 209.332031 467.363281 242.882812 467.363281 Z M 242.882812 467.363281 " clip-rule="nonzero"/></clipPath><clipPath id="f590bc2df1"><path d="M 980.765625 501.074219 L 1064 501.074219 L 1064 584 L 980.765625 584 Z M 980.765625 501.074219 " clip-rule="nonzero"/></clipPath><clipPath id="b3fc3c9562"><path d="M 245.933594 794.328125 L 1037 794.328125 L 1037 1435.449219 L 245.933594 1435.449219 Z M 245.933594 794.328125 " clip-rule="nonzero"/></clipPath><clipPath id="e5f1fc7e0e"><path d="M 314.183594 794.328125 L 967.773438 794.328125 C 1005.464844 794.328125 1036.023438 824.886719 1036.023438 862.578125 L 1036.023438 1367.199219 C 1036.023438 1404.894531 1005.464844 1435.449219 967.773438 1435.449219 L 314.183594 1435.449219 C 276.492188 1435.449219 245.933594 1404.894531 245.933594 1367.199219 L 245.933594 862.578125 C 245.933594 824.886719 276.492188 794.328125 314.183594 794.328125 Z M 314.183594 794.328125 " clip-rule="nonzero"/></clipPath><clipPath id="c1500e5ae6"><path d="M 0.933594 0.328125 L 790 0.328125 L 790 641.449219 L 0.933594 641.449219 Z M 0.933594 0.328125 " clip-rule="nonzero"/></clipPath><clipPath id="8d9c3b4fa1"><path d="M 69.183594 0.328125 L 722.773438 0.328125 C 760.464844 0.328125 791.023438 30.886719 791.023438 68.578125 L 791.023438 573.199219 C 791.023438 610.894531 760.464844 641.449219 722.773438 641.449219 L 69.183594 641.449219 C 31.492188 641.449219 0.933594 610.894531 0.933594 573.199219 L 0.933594 68.578125 C 0.933594 30.886719 31.492188 0.328125 69.183594 0.328125 Z M 69.183594 0.328125 " clip-rule="nonzero"/></clipPath><clipPath id="0c37add9a3"><rect x="0" width="792" y="0" height="642"/></clipPath><clipPath id="d142ae7c13"><path d="M 245.933594 739.378906 L 1037 739.378906 L 1037 1403.402344 L 245.933594 1403.402344 Z M 245.933594 739.378906 " clip-rule="nonzero"/></clipPath><clipPath id="78b2ba27dc"><path d="M 314.183594 739.378906 L 967.773438 739.378906 C 1005.464844 739.378906 1036.023438 769.933594 1036.023438 807.628906 L 1036.023438 1335.152344 C 1036.023438 1372.847656 1005.464844 1403.402344 967.773438 1403.402344 L 314.183594 1403.402344 C 276.492188 1403.402344 245.933594 1372.847656 245.933594 1335.152344 L 245.933594 807.628906 C 245.933594 769.933594 276.492188 739.378906 314.183594 739.378906 Z M 314.183594 739.378906 " clip-rule="nonzero"/></clipPath><clipPath id="8b5fc6b352"><path d="M 0.933594 0.378906 L 791.078125 0.378906 L 791.078125 664.402344 L 0.933594 664.402344 Z M 0.933594 0.378906 " clip-rule="nonzero"/></clipPath><clipPath id="a27a553bee"><path d="M 69.183594 0.378906 L 722.773438 0.378906 C 760.464844 0.378906 791.023438 30.933594 791.023438 68.628906 L 791.023438 596.152344 C 791.023438 633.847656 760.464844 664.402344 722.773438 664.402344 L 69.183594 664.402344 C 31.492188 664.402344 0.933594 633.847656 0.933594 596.152344 L 0.933594 68.628906 C 0.933594 30.933594 31.492188 0.378906 69.183594 0.378906 Z M 69.183594 0.378906 " clip-rule="nonzero"/></clipPath><clipPath id="d0fd885ce7"><rect x="0" width="792" y="0" height="665"/></clipPath></defs><g clip-path="url(#06bdba8719)"><g clip-path="url(#e4b52ebb1c)"><g transform="matrix(1, 0, 0, 1, 182, 467)"><g clip-path="url(#726d8807ab)"><g clip-path="url(#66fea98b52)"><g clip-path="url(#85728420cf)"><path fill="#c6b7d6" d="M 0.132812 0.363281 L 915.886719 0.363281 L 915.886719 994.8125 L 0.132812 994.8125 Z M 0.132812 0.363281 " fill-opacity="1" fill-rule="nonzero"/></g></g></g></g></g></g><g clip-path="url(#5321f7e5c6)"><g clip-path="url(#de12f2c111)"><path stroke-linecap="butt" transform="matrix(0.75, 0, 0, 0.75, 182.134464, 467.363409)" fill="none" stroke-linejoin="miter" d="M 80.997805 -0.000169899 L 1139.997894 -0.000169899 C 1161.48227 -0.000169899 1182.086439 8.536289 1197.27394 23.72379 C 1212.46665 38.9165 1220.9979 59.520668 1220.9979 80.999837 L 1220.9979 1243.468685 C 1220.9979 1288.203063 1184.737481 1324.468692 1139.997894 1324.468692 L 80.997805 1324.468692 C 59.518636 1324.468692 38.914468 1315.932232 23.721758 1300.744731 C 8.534257 1285.552022 -0.00220227 1264.953062 -0.00220227 1243.468685 L -0.00220227 80.999837 C -0.00220227 36.265458 36.263426 -0.000169899 80.997805 -0.000169899 Z M 80.997805 -0.000169899 " stroke="#856a9d" stroke-width="20" stroke-opacity="1" stroke-miterlimit="4"/></g></g><g clip-path="url(#f590bc2df1)"><path fill="#f8f8f8" d="M 1022.179688 501.050781 C 999.292969 501.050781 980.742188 519.601562 980.742188 542.488281 C 980.742188 565.375 999.292969 583.925781 1022.179688 583.925781 C 1045.0625 583.925781 1063.617188 565.375 1063.617188 542.488281 C 1063.617188 519.601562 1045.0625 501.050781 1022.179688 501.050781 Z M 1042.789062 563.082031 C 1040.609375 565.261719 1037.074219 565.261719 1034.894531 563.082031 L 1022.460938 550.652344 L 1009.460938 563.648438 C 1007.285156 565.828125 1003.75 565.828125 1001.570312 563.648438 C 999.386719 561.46875 999.386719 557.933594 1001.570312 555.75 L 1014.566406 542.753906 L 1002.464844 530.65625 C 1000.285156 528.472656 1000.285156 524.941406 1002.464844 522.757812 C 1004.644531 520.578125 1008.179688 520.578125 1010.359375 522.757812 L 1022.460938 534.859375 L 1033.996094 523.324219 C 1036.175781 521.144531 1039.714844 521.144531 1041.890625 523.324219 C 1044.074219 525.503906 1044.074219 529.039062 1041.890625 531.21875 L 1030.355469 542.753906 L 1042.789062 555.1875 C 1044.96875 557.367188 1044.96875 560.902344 1042.789062 563.082031 Z M 1042.789062 563.082031 " fill-opacity="1" fill-rule="nonzero"/></g><g fill="#3b1b72" fill-opacity="1"><g transform="translate(350.823046, 596.510566)"><g><path d="M 51.5625 -75.828125 L 81.625 -13.703125 C 82.882812 -11.171875 83.515625 -9.273438 83.515625 -8.015625 C 83.515625 -5.347656 81.363281 -2.9375 77.0625 -0.78125 C 74.539062 0.476562 72.554688 1.109375 71.109375 1.109375 C 69.660156 1.109375 68.46875 0.773438 67.53125 0.109375 C 66.601562 -0.554688 65.9375 -1.257812 65.53125 -2 C 65.125 -2.75 64.550781 -3.863281 63.8125 -5.34375 L 58.015625 -17.375 L 27.171875 -17.375 L 21.375 -5.34375 C 20.632812 -3.863281 20.0625 -2.785156 19.65625 -2.109375 C 19.25 -1.441406 18.582031 -0.753906 17.65625 -0.046875 C 16.726562 0.648438 15.539062 1 14.09375 1 C 12.644531 1 10.65625 0.367188 8.125 -0.890625 C 3.820312 -2.972656 1.671875 -5.347656 1.671875 -8.015625 C 1.671875 -9.273438 2.300781 -11.171875 3.5625 -13.703125 L 33.625 -75.953125 C 34.445312 -77.660156 35.691406 -79.03125 37.359375 -80.0625 C 39.023438 -81.101562 40.789062 -81.625 42.65625 -81.625 C 46.65625 -81.625 49.625 -79.691406 51.5625 -75.828125 Z M 42.546875 -49.109375 L 35.1875 -33.859375 L 50 -33.859375 Z M 42.546875 -49.109375 "/></g></g></g><g fill="#3b1b72" fill-opacity="1"><g transform="translate(447.922735, 596.510566)"><g><path d="M 4.453125 -71.828125 C 4.453125 -73.535156 4.503906 -74.816406 4.609375 -75.671875 C 4.722656 -76.523438 5.078125 -77.507812 5.671875 -78.625 C 6.710938 -80.625 9.609375 -81.625 14.359375 -81.625 C 19.554688 -81.625 22.640625 -80.25 23.609375 -77.5 C 23.984375 -76.238281 24.171875 -74.3125 24.171875 -71.71875 L 24.171875 -9.796875 C 24.171875 -8.015625 24.113281 -6.710938 24 -5.890625 C 23.882812 -5.078125 23.53125 -4.113281 22.9375 -3 C 21.894531 -1 19 0 14.25 0 C 9.050781 0 6.007812 -1.410156 5.125 -4.234375 C 4.675781 -5.421875 4.453125 -7.3125 4.453125 -9.90625 Z M 4.453125 -71.828125 "/></g></g></g><g fill="#3b1b72" fill-opacity="1"><g transform="translate(488.455839, 596.510566)"><g/></g></g><g fill="#3b1b72" fill-opacity="1"><g transform="translate(528.54354, 596.510566)"><g><path d="M 47 -49.21875 L 66.59375 -49.21875 C 70.601562 -49.070312 73.050781 -48.035156 73.9375 -46.109375 C 74.6875 -44.691406 75.0625 -42.609375 75.0625 -39.859375 L 75.0625 -15.375 C 75.0625 -12.988281 74.019531 -10.722656 71.9375 -8.578125 C 65.695312 -2.117188 56.34375 1.109375 43.875 1.109375 C 32.8125 1.109375 23.195312 -3.0625 15.03125 -11.40625 C 6.863281 -19.757812 2.78125 -29.835938 2.78125 -41.640625 C 2.78125 -53.453125 6.9375 -63.3125 15.25 -71.21875 C 23.570312 -79.125 33.375 -83.078125 44.65625 -83.078125 C 53.414062 -83.078125 61.691406 -80.179688 69.484375 -74.390625 C 71.492188 -72.898438 72.5 -71.242188 72.5 -69.421875 C 72.5 -67.609375 71.644531 -65.515625 69.9375 -63.140625 C 67.039062 -59.203125 64.40625 -57.234375 62.03125 -57.234375 C 60.613281 -57.234375 58.347656 -58.253906 55.234375 -60.296875 C 52.117188 -62.335938 48.40625 -63.359375 44.09375 -63.359375 C 38.457031 -63.359375 33.445312 -61.375 29.0625 -57.40625 C 24.6875 -53.4375 22.5 -48.238281 22.5 -41.8125 C 22.5 -35.394531 24.722656 -29.9375 29.171875 -25.4375 C 33.628906 -20.945312 38.679688 -18.703125 44.328125 -18.703125 C 48.410156 -18.703125 52.082031 -19.375 55.34375 -20.71875 L 55.34375 -32.84375 L 46.546875 -32.84375 C 44.242188 -32.84375 42.609375 -33.140625 41.640625 -33.734375 C 40.679688 -34.328125 40.050781 -35.195312 39.75 -36.34375 C 39.457031 -37.5 39.3125 -39.0625 39.3125 -41.03125 C 39.3125 -43 39.476562 -44.578125 39.8125 -45.765625 C 40.144531 -46.953125 40.753906 -47.769531 41.640625 -48.21875 C 42.984375 -48.882812 44.769531 -49.21875 47 -49.21875 Z M 47 -49.21875 "/></g></g></g><g fill="#3b1b72" fill-opacity="1"><g transform="translate(619.964305, 596.510566)"><g><path d="M 51.5625 -75.828125 L 81.625 -13.703125 C 82.882812 -11.171875 83.515625 -9.273438 83.515625 -8.015625 C 83.515625 -5.347656 81.363281 -2.9375 77.0625 -0.78125 C 74.539062 0.476562 72.554688 1.109375 71.109375 1.109375 C 69.660156 1.109375 68.46875 0.773438 67.53125 0.109375 C 66.601562 -0.554688 65.9375 -1.257812 65.53125 -2 C 65.125 -2.75 64.550781 -3.863281 63.8125 -5.34375 L 58.015625 -17.375 L 27.171875 -17.375 L 21.375 -5.34375 C 20.632812 -3.863281 20.0625 -2.785156 19.65625 -2.109375 C 19.25 -1.441406 18.582031 -0.753906 17.65625 -0.046875 C 16.726562 0.648438 15.539062 1 14.09375 1 C 12.644531 1 10.65625 0.367188 8.125 -0.890625 C 3.820312 -2.972656 1.671875 -5.347656 1.671875 -8.015625 C 1.671875 -9.273438 2.300781 -11.171875 3.5625 -13.703125 L 33.625 -75.953125 C 34.445312 -77.660156 35.691406 -79.03125 37.359375 -80.0625 C 39.023438 -81.101562 40.789062 -81.625 42.65625 -81.625 C 46.65625 -81.625 49.625 -79.691406 51.5625 -75.828125 Z M 42.546875 -49.109375 L 35.1875 -33.859375 L 50 -33.859375 Z M 42.546875 -49.109375 "/></g></g></g><g fill="#3b1b72" fill-opacity="1"><g transform="translate(717.063982, 596.510566)"><g><path d="M 91.203125 -78.515625 C 91.796875 -77.398438 92.144531 -76.394531 92.25 -75.5 C 92.363281 -74.613281 92.421875 -73.316406 92.421875 -71.609375 L 92.421875 -9.796875 C 92.421875 -4.671875 91.015625 -1.664062 88.203125 -0.78125 C 86.785156 -0.332031 85 -0.109375 82.84375 -0.109375 C 80.695312 -0.109375 78.988281 -0.289062 77.71875 -0.65625 C 76.457031 -1.03125 75.492188 -1.476562 74.828125 -2 C 74.160156 -2.519531 73.644531 -3.265625 73.28125 -4.234375 C 72.90625 -5.492188 72.71875 -7.421875 72.71875 -10.015625 L 72.71875 -47.328125 C 70.863281 -45.023438 68.15625 -41.367188 64.59375 -36.359375 C 61.03125 -31.347656 58.765625 -28.210938 57.796875 -26.953125 C 56.828125 -25.691406 56.15625 -24.816406 55.78125 -24.328125 C 55.414062 -23.847656 54.507812 -23.179688 53.0625 -22.328125 C 51.613281 -21.472656 50.050781 -21.046875 48.375 -21.046875 C 46.707031 -21.046875 45.1875 -21.4375 43.8125 -22.21875 C 42.445312 -23 41.46875 -23.757812 40.875 -24.5 L 39.984375 -25.71875 C 38.492188 -27.582031 35.554688 -31.535156 31.171875 -37.578125 C 26.796875 -43.628906 24.421875 -46.878906 24.046875 -47.328125 L 24.046875 -9.796875 C 24.046875 -8.085938 23.988281 -6.804688 23.875 -5.953125 C 23.769531 -5.097656 23.421875 -4.15625 22.828125 -3.125 C 21.710938 -1.113281 18.816406 -0.109375 14.140625 -0.109375 C 9.609375 -0.109375 6.785156 -1.113281 5.671875 -3.125 C 5.078125 -4.15625 4.722656 -5.113281 4.609375 -6 C 4.503906 -6.894531 4.453125 -8.234375 4.453125 -10.015625 L 4.453125 -71.828125 C 4.453125 -73.535156 4.503906 -74.816406 4.609375 -75.671875 C 4.722656 -76.523438 5.078125 -77.507812 5.671875 -78.625 C 6.785156 -80.550781 9.679688 -81.515625 14.359375 -81.515625 C 16.367188 -81.515625 18.097656 -81.269531 19.546875 -80.78125 C 20.992188 -80.300781 21.941406 -79.800781 22.390625 -79.28125 L 23.046875 -78.625 L 48.328125 -45.4375 C 60.953125 -62.132812 69.378906 -73.160156 73.609375 -78.515625 C 74.867188 -80.515625 77.851562 -81.515625 82.5625 -81.515625 C 87.28125 -81.515625 90.160156 -80.515625 91.203125 -78.515625 Z M 91.203125 -78.515625 "/></g></g></g><g fill="#3b1b72" fill-opacity="1"><g transform="translate(825.855584, 596.510566)"><g><path d="M 24.171875 -19.703125 L 58.46875 -19.703125 C 60.175781 -19.703125 61.457031 -19.644531 62.3125 -19.53125 C 63.164062 -19.425781 64.144531 -19.078125 65.25 -18.484375 C 67.257812 -17.441406 68.265625 -14.546875 68.265625 -9.796875 C 68.265625 -4.597656 66.890625 -1.554688 64.140625 -0.671875 C 62.878906 -0.222656 60.953125 0 58.359375 0 L 14.25 0 C 9.050781 0 6.007812 -1.410156 5.125 -4.234375 C 4.675781 -5.421875 4.453125 -7.3125 4.453125 -9.90625 L 4.453125 -71.828125 C 4.453125 -75.609375 5.15625 -78.1875 6.5625 -79.5625 C 7.976562 -80.9375 10.65625 -81.625 14.59375 -81.625 L 58.46875 -81.625 C 60.175781 -81.625 61.457031 -81.566406 62.3125 -81.453125 C 63.164062 -81.347656 64.144531 -81 65.25 -80.40625 C 67.257812 -79.363281 68.265625 -76.46875 68.265625 -71.71875 C 68.265625 -66.519531 66.890625 -63.472656 64.140625 -62.578125 C 62.878906 -62.140625 60.953125 -61.921875 58.359375 -61.921875 L 24.171875 -61.921875 L 24.171875 -50.671875 L 46.21875 -50.671875 C 47.925781 -50.671875 49.207031 -50.613281 50.0625 -50.5 C 50.914062 -50.382812 51.894531 -50.03125 53 -49.4375 C 55.007812 -48.40625 56.015625 -45.507812 56.015625 -40.75 C 56.015625 -35.5625 54.601562 -32.519531 51.78125 -31.625 C 50.519531 -31.175781 48.585938 -30.953125 45.984375 -30.953125 L 24.171875 -30.953125 Z M 24.171875 -19.703125 "/></g></g></g><g fill="#3b1b72" fill-opacity="1"><g transform="translate(314.858205, 696.260557)"><g><path d="M 51.5625 -75.828125 L 81.625 -13.703125 C 82.882812 -11.171875 83.515625 -9.273438 83.515625 -8.015625 C 83.515625 -5.347656 81.363281 -2.9375 77.0625 -0.78125 C 74.539062 0.476562 72.554688 1.109375 71.109375 1.109375 C 69.660156 1.109375 68.46875 0.773438 67.53125 0.109375 C 66.601562 -0.554688 65.9375 -1.257812 65.53125 -2 C 65.125 -2.75 64.550781 -3.863281 63.8125 -5.34375 L 58.015625 -17.375 L 27.171875 -17.375 L 21.375 -5.34375 C 20.632812 -3.863281 20.0625 -2.785156 19.65625 -2.109375 C 19.25 -1.441406 18.582031 -0.753906 17.65625 -0.046875 C 16.726562 0.648438 15.539062 1 14.09375 1 C 12.644531 1 10.65625 0.367188 8.125 -0.890625 C 3.820312 -2.972656 1.671875 -5.347656 1.671875 -8.015625 C 1.671875 -9.273438 2.300781 -11.171875 3.5625 -13.703125 L 33.625 -75.953125 C 34.445312 -77.660156 35.691406 -79.03125 37.359375 -80.0625 C 39.023438 -81.101562 40.789062 -81.625 42.65625 -81.625 C 46.65625 -81.625 49.625 -79.691406 51.5625 -75.828125 Z M 42.546875 -49.109375 L 35.1875 -33.859375 L 50 -33.859375 Z M 42.546875 -49.109375 "/></g></g></g><g fill="#3b1b72" fill-opacity="1"><g transform="translate(411.957894, 696.260557)"><g><path d="M 57.171875 -78.21875 C 57.878906 -79.519531 58.9375 -80.394531 60.34375 -80.84375 C 61.757812 -81.289062 63.523438 -81.515625 65.640625 -81.515625 C 67.753906 -81.515625 69.460938 -81.328125 70.765625 -80.953125 C 72.066406 -80.585938 73.03125 -80.144531 73.65625 -79.625 C 74.289062 -79.101562 74.757812 -78.320312 75.0625 -77.28125 C 75.5 -76.09375 75.71875 -74.203125 75.71875 -71.609375 L 75.71875 -9.796875 C 75.71875 -8.015625 75.660156 -6.710938 75.546875 -5.890625 C 75.441406 -5.078125 75.09375 -4.113281 74.5 -3 C 73.457031 -1 70.5625 0 65.8125 0 C 62.914062 0 60.910156 -0.222656 59.796875 -0.671875 C 58.679688 -1.117188 57.753906 -1.820312 57.015625 -2.78125 C 40.304688 -25.050781 29.316406 -39.601562 24.046875 -46.4375 L 24.046875 -9.796875 C 24.046875 -8.015625 23.988281 -6.710938 23.875 -5.890625 C 23.769531 -5.078125 23.421875 -4.113281 22.828125 -3 C 21.785156 -1 18.890625 0 14.140625 0 C 9.535156 0 6.710938 -1 5.671875 -3 C 5.078125 -4.113281 4.722656 -5.113281 4.609375 -6 C 4.503906 -6.894531 4.453125 -8.195312 4.453125 -9.90625 L 4.453125 -72.046875 C 4.453125 -74.867188 4.800781 -76.925781 5.5 -78.21875 C 6.207031 -79.519531 7.265625 -80.394531 8.671875 -80.84375 C 10.085938 -81.289062 11.910156 -81.515625 14.140625 -81.515625 C 16.367188 -81.515625 18.128906 -81.3125 19.421875 -80.90625 C 20.722656 -80.5 21.632812 -80.035156 22.15625 -79.515625 C 22.457031 -79.285156 23.3125 -78.316406 24.71875 -76.609375 C 40.382812 -55.304688 50.851562 -41.238281 56.125 -34.40625 L 56.125 -72.046875 C 56.125 -74.867188 56.472656 -76.925781 57.171875 -78.21875 Z M 57.171875 -78.21875 "/></g></g></g><g fill="#3b1b72" fill-opacity="1"><g transform="translate(504.046765, 696.260557)"><g><path d="M 51.5625 -75.828125 L 81.625 -13.703125 C 82.882812 -11.171875 83.515625 -9.273438 83.515625 -8.015625 C 83.515625 -5.347656 81.363281 -2.9375 77.0625 -0.78125 C 74.539062 0.476562 72.554688 1.109375 71.109375 1.109375 C 69.660156 1.109375 68.46875 0.773438 67.53125 0.109375 C 66.601562 -0.554688 65.9375 -1.257812 65.53125 -2 C 65.125 -2.75 64.550781 -3.863281 63.8125 -5.34375 L 58.015625 -17.375 L 27.171875 -17.375 L 21.375 -5.34375 C 20.632812 -3.863281 20.0625 -2.785156 19.65625 -2.109375 C 19.25 -1.441406 18.582031 -0.753906 17.65625 -0.046875 C 16.726562 0.648438 15.539062 1 14.09375 1 C 12.644531 1 10.65625 0.367188 8.125 -0.890625 C 3.820312 -2.972656 1.671875 -5.347656 1.671875 -8.015625 C 1.671875 -9.273438 2.300781 -11.171875 3.5625 -13.703125 L 33.625 -75.953125 C 34.445312 -77.660156 35.691406 -79.03125 37.359375 -80.0625 C 39.023438 -81.101562 40.789062 -81.625 42.65625 -81.625 C 46.65625 -81.625 49.625 -79.691406 51.5625 -75.828125 Z M 42.546875 -49.109375 L 35.1875 -33.859375 L 50 -33.859375 Z M 42.546875 -49.109375 "/></g></g></g><g fill="#3b1b72" fill-opacity="1"><g transform="translate(601.146466, 696.260557)"><g><path d="M 24.171875 -16.484375 L 54.453125 -16.484375 C 56.898438 -16.484375 58.679688 -16.203125 59.796875 -15.640625 C 60.910156 -15.085938 61.648438 -14.21875 62.015625 -13.03125 C 62.390625 -11.84375 62.578125 -10.265625 62.578125 -8.296875 C 62.578125 -6.328125 62.390625 -4.75 62.015625 -3.5625 C 61.648438 -2.375 61.023438 -1.554688 60.140625 -1.109375 C 58.722656 -0.367188 56.789062 0 54.34375 0 L 14.25 0 C 9.050781 0 6.007812 -1.410156 5.125 -4.234375 C 4.675781 -5.421875 4.453125 -7.3125 4.453125 -9.90625 L 4.453125 -71.828125 C 4.453125 -73.535156 4.503906 -74.816406 4.609375 -75.671875 C 4.722656 -76.523438 5.078125 -77.507812 5.671875 -78.625 C 6.710938 -80.625 9.609375 -81.625 14.359375 -81.625 C 19.554688 -81.625 22.640625 -80.25 23.609375 -77.5 C 23.984375 -76.238281 24.171875 -74.3125 24.171875 -71.71875 Z M 24.171875 -16.484375 "/></g></g></g><g fill="#3b1b72" fill-opacity="1"><g transform="translate(664.505576, 696.260557)"><g><path d="M 69.265625 -80.0625 C 72.898438 -77.539062 74.71875 -75.09375 74.71875 -72.71875 C 74.71875 -71.3125 73.863281 -69.34375 72.15625 -66.8125 L 48.109375 -30.84375 L 48.109375 -9.578125 C 48.109375 -7.867188 48.050781 -6.585938 47.9375 -5.734375 C 47.820312 -4.878906 47.46875 -3.894531 46.875 -2.78125 C 46.28125 -1.664062 45.28125 -0.882812 43.875 -0.4375 C 42.46875 0 40.570312 0.21875 38.1875 0.21875 C 35.8125 0.21875 33.921875 0 32.515625 -0.4375 C 31.109375 -0.882812 30.109375 -1.679688 29.515625 -2.828125 C 28.921875 -3.984375 28.566406 -4.988281 28.453125 -5.84375 C 28.335938 -6.695312 28.28125 -8.015625 28.28125 -9.796875 L 28.28125 -30.84375 L 4.234375 -66.8125 C 2.523438 -69.34375 1.671875 -71.3125 1.671875 -72.71875 C 1.671875 -75.09375 3.300781 -77.375 6.5625 -79.5625 C 9.832031 -81.75 12.171875 -82.84375 13.578125 -82.84375 C 14.992188 -82.84375 16.109375 -82.546875 16.921875 -81.953125 C 18.179688 -81.140625 19.519531 -79.617188 20.9375 -77.390625 L 38.203125 -49.78125 L 55.453125 -77.390625 C 56.867188 -79.617188 58.09375 -81.082031 59.125 -81.78125 C 60.164062 -82.488281 61.375 -82.84375 62.75 -82.84375 C 64.125 -82.84375 66.296875 -81.914062 69.265625 -80.0625 Z M 69.265625 -80.0625 "/></g></g></g><g fill="#3b1b72" fill-opacity="1"><g transform="translate(750.581298, 696.260557)"><g><path d="M 5.671875 -11.46875 C 3.742188 -13.84375 2.78125 -15.976562 2.78125 -17.875 C 2.78125 -19.769531 4.378906 -22.273438 7.578125 -25.390625 C 9.429688 -27.171875 11.394531 -28.0625 13.46875 -28.0625 C 15.550781 -28.0625 18.445312 -26.207031 22.15625 -22.5 C 23.195312 -21.226562 24.679688 -20.019531 26.609375 -18.875 C 28.546875 -17.726562 30.328125 -17.15625 31.953125 -17.15625 C 38.859375 -17.15625 42.3125 -19.972656 42.3125 -25.609375 C 42.3125 -27.316406 41.363281 -28.742188 39.46875 -29.890625 C 37.582031 -31.046875 35.226562 -31.882812 32.40625 -32.40625 C 29.582031 -32.925781 26.535156 -33.757812 23.265625 -34.90625 C 20.003906 -36.0625 16.960938 -37.414062 14.140625 -38.96875 C 11.316406 -40.53125 8.957031 -43 7.0625 -46.375 C 5.175781 -49.757812 4.234375 -53.828125 4.234375 -58.578125 C 4.234375 -65.109375 6.660156 -70.804688 11.515625 -75.671875 C 16.378906 -80.535156 23.007812 -82.96875 31.40625 -82.96875 C 35.851562 -82.96875 39.914062 -82.390625 43.59375 -81.234375 C 47.269531 -80.085938 49.8125 -78.921875 51.21875 -77.734375 L 54.015625 -75.609375 C 56.316406 -73.460938 57.46875 -71.644531 57.46875 -70.15625 C 57.46875 -68.664062 56.570312 -66.625 54.78125 -64.03125 C 52.257812 -60.320312 49.664062 -58.46875 47 -58.46875 C 45.4375 -58.46875 43.503906 -59.207031 41.203125 -60.6875 C 40.984375 -60.832031 40.554688 -61.203125 39.921875 -61.796875 C 39.285156 -62.398438 38.710938 -62.882812 38.203125 -63.25 C 36.640625 -64.21875 34.648438 -64.703125 32.234375 -64.703125 C 29.828125 -64.703125 27.820312 -64.125 26.21875 -62.96875 C 24.625 -61.820312 23.828125 -60.226562 23.828125 -58.1875 C 23.828125 -56.144531 24.773438 -54.492188 26.671875 -53.234375 C 28.566406 -51.972656 30.921875 -51.117188 33.734375 -50.671875 C 36.554688 -50.222656 39.640625 -49.535156 42.984375 -48.609375 C 46.328125 -47.679688 49.40625 -46.546875 52.21875 -45.203125 C 55.039062 -43.867188 57.398438 -41.550781 59.296875 -38.25 C 61.191406 -34.945312 62.140625 -30.878906 62.140625 -26.046875 C 62.140625 -21.222656 61.171875 -16.972656 59.234375 -13.296875 C 57.304688 -9.628906 54.785156 -6.789062 51.671875 -4.78125 C 45.660156 -0.851562 39.238281 1.109375 32.40625 1.109375 C 28.914062 1.109375 25.609375 0.679688 22.484375 -0.171875 C 19.367188 -1.023438 16.847656 -2.082031 14.921875 -3.34375 C 10.984375 -5.71875 8.238281 -8.019531 6.6875 -10.25 Z M 5.671875 -11.46875 "/></g></g></g><g fill="#3b1b72" fill-opacity="1"><g transform="translate(827.415001, 696.260557)"><g><path d="M 4.453125 -71.828125 C 4.453125 -73.535156 4.503906 -74.816406 4.609375 -75.671875 C 4.722656 -76.523438 5.078125 -77.507812 5.671875 -78.625 C 6.710938 -80.625 9.609375 -81.625 14.359375 -81.625 C 19.554688 -81.625 22.640625 -80.25 23.609375 -77.5 C 23.984375 -76.238281 24.171875 -74.3125 24.171875 -71.71875 L 24.171875 -9.796875 C 24.171875 -8.015625 24.113281 -6.710938 24 -5.890625 C 23.882812 -5.078125 23.53125 -4.113281 22.9375 -3 C 21.894531 -1 19 0 14.25 0 C 9.050781 0 6.007812 -1.410156 5.125 -4.234375 C 4.675781 -5.421875 4.453125 -7.3125 4.453125 -9.90625 Z M 4.453125 -71.828125 "/></g></g></g><g fill="#3b1b72" fill-opacity="1"><g transform="translate(867.948094, 696.260557)"><g><path d="M 5.671875 -11.46875 C 3.742188 -13.84375 2.78125 -15.976562 2.78125 -17.875 C 2.78125 -19.769531 4.378906 -22.273438 7.578125 -25.390625 C 9.429688 -27.171875 11.394531 -28.0625 13.46875 -28.0625 C 15.550781 -28.0625 18.445312 -26.207031 22.15625 -22.5 C 23.195312 -21.226562 24.679688 -20.019531 26.609375 -18.875 C 28.546875 -17.726562 30.328125 -17.15625 31.953125 -17.15625 C 38.859375 -17.15625 42.3125 -19.972656 42.3125 -25.609375 C 42.3125 -27.316406 41.363281 -28.742188 39.46875 -29.890625 C 37.582031 -31.046875 35.226562 -31.882812 32.40625 -32.40625 C 29.582031 -32.925781 26.535156 -33.757812 23.265625 -34.90625 C 20.003906 -36.0625 16.960938 -37.414062 14.140625 -38.96875 C 11.316406 -40.53125 8.957031 -43 7.0625 -46.375 C 5.175781 -49.757812 4.234375 -53.828125 4.234375 -58.578125 C 4.234375 -65.109375 6.660156 -70.804688 11.515625 -75.671875 C 16.378906 -80.535156 23.007812 -82.96875 31.40625 -82.96875 C 35.851562 -82.96875 39.914062 -82.390625 43.59375 -81.234375 C 47.269531 -80.085938 49.8125 -78.921875 51.21875 -77.734375 L 54.015625 -75.609375 C 56.316406 -73.460938 57.46875 -71.644531 57.46875 -70.15625 C 57.46875 -68.664062 56.570312 -66.625 54.78125 -64.03125 C 52.257812 -60.320312 49.664062 -58.46875 47 -58.46875 C 45.4375 -58.46875 43.503906 -59.207031 41.203125 -60.6875 C 40.984375 -60.832031 40.554688 -61.203125 39.921875 -61.796875 C 39.285156 -62.398438 38.710938 -62.882812 38.203125 -63.25 C 36.640625 -64.21875 34.648438 -64.703125 32.234375 -64.703125 C 29.828125 -64.703125 27.820312 -64.125 26.21875 -62.96875 C 24.625 -61.820312 23.828125 -60.226562 23.828125 -58.1875 C 23.828125 -56.144531 24.773438 -54.492188 26.671875 -53.234375 C 28.566406 -51.972656 30.921875 -51.117188 33.734375 -50.671875 C 36.554688 -50.222656 39.640625 -49.535156 42.984375 -48.609375 C 46.328125 -47.679688 49.40625 -46.546875 52.21875 -45.203125 C 55.039062 -43.867188 57.398438 -41.550781 59.296875 -38.25 C 61.191406 -34.945312 62.140625 -30.878906 62.140625 -26.046875 C 62.140625 -21.222656 61.171875 -16.972656 59.234375 -13.296875 C 57.304688 -9.628906 54.785156 -6.789062 51.671875 -4.78125 C 45.660156 -0.851562 39.238281 1.109375 32.40625 1.109375 C 28.914062 1.109375 25.609375 0.679688 22.484375 -0.171875 C 19.367188 -1.023438 16.847656 -2.082031 14.921875 -3.34375 C 10.984375 -5.71875 8.238281 -8.019531 6.6875 -10.25 Z M 5.671875 -11.46875 "/></g></g></g><g clip-path="url(#b3fc3c9562)"><g clip-path="url(#e5f1fc7e0e)"><g transform="matrix(1, 0, 0, 1, 245, 794)"><g clip-path="url(#0c37add9a3)"><g clip-path="url(#c1500e5ae6)"><g clip-path="url(#8d9c3b4fa1)"><path fill="#a88bc2" d="M 0.933594 0.328125 L 789.8125 0.328125 L 789.8125 641.449219 L 0.933594 641.449219 Z M 0.933594 0.328125 " fill-opacity="1" fill-rule="nonzero"/></g></g></g></g></g></g><g clip-path="url(#d142ae7c13)"><g clip-path="url(#78b2ba27dc)"><g transform="matrix(1, 0, 0, 1, 245, 739)"><g clip-path="url(#d0fd885ce7)"><g clip-path="url(#8b5fc6b352)"><g clip-path="url(#a27a553bee)"><path fill="#ebe1f6" d="M 0.933594 0.378906 L 792.058594 0.378906 L 792.058594 664.402344 L 0.933594 664.402344 Z M 0.933594 0.378906 " fill-opacity="1" fill-rule="nonzero"/></g></g></g></g></g></g></svg>